<?xml version="1.0" standalone="no"?>
<!DOCTYPE svg PUBLIC "-//W3C//DTD SVG 20010904//EN"
 "http://www.w3.org/TR/2001/REC-SVG-20010904/DTD/svg10.dtd">
<svg version="1.0" xmlns="http://www.w3.org/2000/svg"
 width="590.000000pt" height="578.000000pt" viewBox="0 0 590.000000 578.000000"
 preserveAspectRatio="xMidYMid meet">

<g transform="translate(0.000000,578.000000) scale(0.100000,-0.100000)"
fill="#000000" stroke="none">
<path d="M0 2890 l0 -2890 2950 0 2950 0 0 2890 0 2890 -2950 0 -2950 0 0
-2890z m2842 2803 c7 -30 -2 -51 -25 -57 -65 -17 -101 7 -70 48 22 32 88 37
95 9z m-142 -10 c-1 -27 -32 -61 -62 -68 -21 -5 -33 -1 -52 19 -48 47 -33 61
72 65 34 1 42 -2 42 -16z m150 -494 c41 -13 82 -24 90 -24 8 -1 28 -5 44 -9
15 -5 45 -9 65 -10 40 -2 64 -13 56 -26 -3 -5 4 -15 15 -23 26 -18 89 -201
121 -347 6 -30 23 -75 37 -100 48 -81 61 -120 77 -217 21 -128 62 -184 75
-102 l6 34 8 -33 8 -33 44 41 c49 45 66 48 109 21 45 -27 59 -91 50 -233 -8
-118 -19 -159 -57 -209 -79 -103 -95 -113 -138 -87 -24 15 -39 2 -17 -15 16
-11 16 -24 7 -133 -5 -67 -14 -134 -20 -150 -9 -24 -7 -35 16 -77 33 -61 31
-65 -73 -177 -96 -104 -184 -217 -290 -375 -82 -120 -213 -284 -393 -490 -159
-182 -307 -376 -505 -659 -68 -98 -88 -110 -65 -40 7 19 10 38 7 41 -3 3 -11
-13 -18 -36 -14 -46 -33 -57 -23 -13 11 47 134 235 199 302 18 19 45 61 59 93
32 74 131 205 173 230 18 10 31 22 29 25 -2 4 -22 40 -46 80 l-43 73 -18 -31
c-10 -16 -21 -30 -23 -30 -2 0 -28 11 -58 25 -29 14 -60 25 -68 25 -35 1 -41
14 -26 58 13 36 13 42 -1 53 -12 11 -20 7 -48 -27 -37 -43 -95 -144 -95 -166
0 -7 -9 -30 -20 -51 -11 -20 -20 -43 -20 -51 0 -7 -13 -40 -30 -72 -16 -32
-30 -65 -30 -71 0 -7 -29 -99 -66 -205 -65 -191 -65 -192 -156 -315 l-92 -124
-68 68 c-37 37 -68 74 -68 81 0 19 66 159 169 359 90 175 214 370 282 444 21
23 39 46 39 51 0 5 11 13 24 18 36 13 54 90 61 260 6 145 14 196 39 244 11 22
11 37 0 89 -19 87 -18 91 14 62 35 -34 138 -105 151 -105 6 0 11 -6 12 -12 0
-10 2 -10 6 0 4 9 10 7 22 -7 24 -27 63 -41 117 -41 30 0 43 -4 42 -12 -2 -10
15 -13 63 -12 59 0 66 -1 61 -18 -4 -16 0 -17 29 -12 19 4 42 11 51 15 26 14
32 11 17 -8 -11 -14 51 29 81 55 7 6 -40 -3 -65 -13 -20 -8 -20 -8 0 8 27 21
13 32 -25 19 -18 -7 -28 -7 -25 -2 4 6 -1 10 -9 10 -9 0 -16 -3 -16 -7 0 -5
-11 -13 -25 -20 -14 -6 -23 -7 -19 -2 5 9 -21 12 -91 9 -32 -1 -124 26 -105
30 3 1 14 3 25 4 11 2 34 6 52 10 40 9 111 18 143 18 14 0 31 4 38 10 7 6 29
12 49 13 22 1 43 10 53 22 20 25 86 39 93 21 3 -7 6 -2 6 11 1 19 4 21 15 12
11 -9 15 -9 20 1 5 10 7 10 12 1 8 -18 39 -16 54 2 7 8 16 12 21 9 5 -3 9 0 9
5 0 6 6 11 13 11 7 0 24 11 38 24 14 13 35 27 47 30 12 4 22 11 22 16 0 5 -7
7 -16 3 -14 -5 -14 -3 -3 16 16 24 25 27 31 9 3 -8 9 -5 16 8 8 15 8 27 -2 45
-23 46 -26 58 -10 52 9 -3 14 2 14 17 0 17 -4 20 -20 15 -11 -4 -20 -2 -20 4
0 19 50 13 51 -6 0 -10 7 2 14 27 11 34 11 46 2 52 -8 5 -14 -2 -17 -20 -4
-19 -11 -27 -25 -27 -11 0 -27 -8 -36 -17 -9 -10 -23 -18 -32 -18 -8 0 -17 -7
-20 -14 -4 -11 -1 -13 10 -9 25 10 -40 -50 -77 -71 -19 -11 -40 -25 -46 -30
-38 -36 -63 -54 -69 -48 -3 4 -9 1 -13 -5 -5 -7 -13 -9 -21 -4 -10 7 -10 14 3
40 9 17 12 31 6 31 -5 0 -10 -6 -10 -14 0 -19 -25 -27 -40 -13 -10 9 -11 9 -6
-1 4 -7 1 -15 -8 -18 -8 -3 -18 -14 -21 -25 -4 -10 -14 -19 -23 -19 -10 0 -28
-7 -40 -16 -12 -8 -26 -13 -31 -10 -5 4 -11 1 -13 -5 -2 -5 -24 -13 -48 -16
-25 -3 -52 -12 -61 -20 -22 -19 -79 -35 -79 -22 0 6 -3 8 -8 5 -4 -2 -27 0
-52 5 -25 6 -54 10 -64 10 -11 0 -29 5 -40 11 -19 10 -20 10 -7 -6 12 -15 12
-17 0 -14 -9 2 -14 -5 -13 -19 0 -21 -1 -21 -30 -6 -17 9 -40 16 -50 17 -12 1
-23 11 -27 26 -4 14 -8 21 -8 15 -1 -5 -14 5 -30 23 -16 17 -33 32 -37 32 -17
1 -134 168 -177 251 -23 46 -51 118 -61 159 -11 44 -27 82 -38 92 -11 10 -30
50 -43 89 -18 59 -21 79 -12 117 6 32 6 60 -3 96 -14 59 -1 216 20 241 7 8 23
15 35 15 21 0 24 7 34 68 6 37 18 139 26 227 l16 160 46 80 c25 44 67 102 92
129 25 26 54 57 64 68 10 11 25 17 33 14 8 -3 14 -1 14 4 0 5 7 7 16 3 8 -3
25 3 37 15 31 29 95 59 147 71 25 5 69 15 98 22 66 14 184 26 237 24 22 -2 74
-13 115 -26z m-2368 -1244 c10 -11 17 -26 18 -33 0 -7 5 -10 11 -6 6 3 27 -1
47 -9 21 -8 46 -18 57 -22 15 -4 16 -8 6 -14 -10 -6 -9 -10 4 -15 9 -3 25 -6
36 -6 10 0 19 -4 19 -10 0 -17 -21 -11 -89 26 -36 20 -74 38 -86 40 -11 2 -30
6 -42 8 -37 7 -63 26 -63 45 0 26 59 23 82 -4z m313 -141 c11 -8 29 -14 41
-14 20 0 72 -20 104 -41 8 -5 31 -16 50 -24 19 -9 43 -20 52 -25 10 -6 27 -10
37 -10 11 0 23 -4 26 -10 3 -5 16 -9 28 -9 29 1 91 -23 115 -44 10 -9 28 -15
40 -12 31 6 84 -16 108 -45 12 -14 43 -36 69 -49 59 -29 125 -96 125 -125 0
-48 -44 -58 -127 -30 -26 9 -68 18 -91 20 -24 1 -49 9 -55 17 -19 23 -71 31
-87 12 -8 -9 -29 -15 -57 -15 -39 0 -44 2 -38 19 4 13 0 23 -12 28 -21 10 -93
9 -141 -2 -27 -5 -41 -1 -81 24 -55 35 -61 37 -61 15 0 -29 -60 -13 -87 23
l-25 32 41 17 c28 11 41 22 41 36 0 10 -4 17 -8 14 -4 -2 -14 0 -22 6 -12 8
-12 9 3 4 9 -3 17 -1 17 5 0 7 12 9 30 7 36 -5 40 14 9 36 -12 8 -18 19 -15
24 3 6 0 12 -8 15 -8 3 -12 14 -10 24 4 13 -4 22 -28 32 -18 8 -39 23 -46 33
-7 10 -20 18 -28 18 -8 0 -14 5 -14 10 0 14 79 1 105 -16z m4731 -535 l192 0
5 -57 c4 -31 9 -107 13 -168 l6 -111 -43 -7 c-49 -6 -163 -1 -179 9 -6 4 -23
2 -38 -4 -18 -8 -55 -8 -112 -3 -81 8 -85 7 -106 -15 -24 -26 -65 -30 -83 -9
-6 8 -28 17 -49 20 -62 11 -192 14 -198 5 -3 -5 -35 -6 -72 -3 -37 4 -78 6
-92 5 -24 -1 -106 -2 -255 -2 -38 0 -95 0 -125 -1 -30 -1 -80 0 -110 1 -74 5
-283 -9 -293 -19 -5 -4 28 -27 72 -50 45 -24 80 -45 77 -47 -10 -10 -177 85
-241 137 -62 51 -195 130 -218 130 -4 0 -5 -6 -2 -12 18 -35 -40 48 -61 88
-17 31 -21 49 -14 54 6 3 57 12 114 19 77 8 116 9 152 1 45 -11 365 -6 434 6
14 2 162 9 330 15 168 5 370 14 450 18 80 5 170 7 200 5 30 -2 141 -5 246 -5z
m-2520 -67 c-11 -10 -15 4 -8 28 l7 25 3 -23 c2 -13 1 -26 -2 -30z m-1877 -42
c18 -33 24 -65 31 -157 7 -109 18 -142 41 -127 4 2 19 -1 32 -7 61 -28 39
-129 -27 -129 -14 0 -28 -6 -33 -12 -4 -7 -10 -83 -13 -168 l-5 -155 -22 81
c-13 44 -30 123 -39 175 -8 52 -24 112 -34 134 -41 92 -51 202 -25 299 13 51
45 101 66 105 3 1 16 -17 28 -39z m1321 -74 c0 -3 -4 -8 -10 -11 -5 -3 -10 -1
-10 4 0 6 5 11 10 11 6 0 10 -2 10 -4z m1730 -286 c8 -5 11 -10 5 -10 -5 0
-17 5 -25 10 -8 5 -10 10 -5 10 6 0 17 -5 25 -10z m-3520 -34 c0 -19 6 -25 30
-28 26 -4 30 -1 30 19 0 13 6 23 14 23 27 0 46 -12 46 -30 0 -13 11 -19 45
-24 45 -7 65 -26 65 -61 0 -14 -7 -16 -50 -10 -46 6 -50 5 -50 -14 0 -16 6
-21 28 -21 43 0 70 -10 74 -28 9 -32 -3 -42 -48 -42 -37 0 -44 -3 -44 -19 0
-11 -4 -23 -10 -26 -14 -9 -48 12 -55 35 -9 29 -53 27 -57 -2 -2 -16 -11 -24
-30 -26 -23 -3 -27 1 -30 25 -3 26 -7 28 -53 33 -48 5 -50 6 -50 35 0 29 1 30
48 30 37 0 47 3 47 17 0 11 -12 18 -42 23 -53 9 -68 20 -68 52 0 24 3 25 50
21 40 -2 50 0 50 13 0 22 9 29 37 29 18 0 23 -6 23 -24z m4224 -111 c28 -30
43 -83 51 -180 6 -69 6 -70 -12 -45 -10 13 -45 58 -78 98 -87 107 -84 100 -52
128 36 31 62 30 91 -1z m411 -40 c12 -2 31 -23 44 -45 12 -22 26 -40 30 -40 4
0 26 20 48 45 l40 45 105 0 c114 0 128 -6 128 -55 0 -59 -21 -106 -75 -166
-30 -33 -76 -97 -102 -141 -26 -44 -55 -91 -63 -104 -13 -20 -13 -27 -1 -46 9
-14 17 -77 22 -182 l9 -160 -61 -115 c-84 -160 -208 -348 -219 -331 -5 7 -11
50 -14 94 -4 45 -12 125 -18 179 -9 80 -9 100 2 107 7 4 10 15 7 23 -3 9 1 18
10 21 21 8 32 -1 27 -22 -2 -9 0 -23 5 -31 15 -23 61 1 54 27 -6 25 22 108 36
104 6 -1 11 7 11 18 0 11 -4 20 -8 20 -5 0 -19 9 -32 20 -13 11 -28 20 -35 20
-7 0 -20 -9 -30 -20 -10 -11 -26 -20 -35 -20 -9 0 -22 -6 -29 -12 -17 -17 -39
12 -47 61 -3 20 -9 46 -15 59 -13 32 -11 52 6 86 8 15 15 48 15 73 0 58 31 92
78 85 23 -3 32 -10 32 -23 0 -10 5 -21 10 -24 6 -4 8 -10 5 -14 -6 -11 47 -1
63 12 7 6 9 13 4 16 -14 9 -67 110 -82 156 -7 22 -28 67 -46 100 -66 120 -76
180 -31 187 25 4 121 -1 152 -7z m-4448 -184 c105 -48 145 -196 80 -292 -52
-78 -180 -106 -260 -59 -46 27 -85 91 -93 153 -21 148 135 260 273 198z m212
-443 c57 -126 51 -197 -23 -232 -59 -28 -101 -21 -146 24 -22 22 -42 51 -46
65 -8 31 -13 31 -74 0 l-50 -25 -19 39 -20 39 22 14 c12 7 58 30 102 51 44 21
107 51 140 67 33 16 65 29 70 29 6 1 26 -32 44 -71z m201 -351 l54 -79 -25
-19 c-13 -10 -26 -19 -30 -19 -3 0 -24 27 -48 60 -26 38 -46 58 -54 53 -7 -3
-22 -13 -34 -21 l-23 -14 30 -43 c36 -53 37 -58 5 -79 -24 -16 -25 -15 -55 29
-17 25 -33 45 -36 45 -11 0 -64 -34 -64 -41 0 -4 15 -29 33 -55 18 -27 36 -54
40 -61 4 -7 -5 -20 -21 -32 l-29 -20 -68 100 c-42 61 -65 103 -59 108 5 6 74
55 153 109 166 115 136 118 231 -21z m114 -152 c19 -29 19 -67 2 -200 -8 -55
-12 -102 -10 -104 3 -3 40 30 82 72 l78 77 27 -28 27 -28 -133 -132 -133 -133
-23 25 -24 26 16 137 c9 75 15 138 14 139 -1 2 -38 -31 -80 -73 l-78 -76 -30
29 -30 28 133 133 c73 73 136 133 139 133 4 0 14 -11 23 -25z m377 -331 c60
-43 109 -80 109 -83 0 -3 -9 -17 -19 -30 l-19 -25 -41 27 c-22 15 -42 27 -44
27 -2 0 -39 -51 -82 -112 -43 -62 -82 -117 -86 -122 -7 -8 -79 29 -79 40 0 3
38 60 85 127 94 134 92 123 25 168 -24 16 -24 16 -6 43 11 17 23 25 33 22 8
-3 64 -40 124 -82z m2113 -194 c-7 -36 -18 -82 -23 -103 -8 -35 -7 -39 17 -51
42 -22 167 -107 170 -116 2 -4 -18 -16 -43 -25 l-46 -18 -67 46 c-78 53 -92
60 -110 49 -10 -7 -8 -19 9 -58 43 -99 43 -92 -1 -114 l-40 -21 -19 43 c-10
24 -44 101 -75 173 -54 122 -56 130 -39 143 19 13 62 27 67 21 1 -2 14 -31 28
-64 28 -68 49 -77 61 -25 32 151 29 143 76 167 25 13 46 22 47 20 1 -1 -4 -31
-12 -67z m-1803 19 c157 -79 130 -313 -42 -359 -127 -34 -265 86 -245 213 23
142 159 211 287 146z m264 -119 c9 -7 16 -51 20 -126 l7 -116 23 39 c12 21 38
67 58 103 30 55 40 65 65 68 16 2 34 -3 40 -10 6 -8 16 -63 22 -123 6 -60 12
-111 14 -112 2 -2 26 44 54 102 43 88 55 105 74 105 33 0 68 -11 68 -21 0 -4
-40 -82 -89 -171 l-89 -163 -38 2 c-20 2 -39 5 -42 8 -3 3 -9 55 -15 117 -5
62 -12 116 -16 120 -6 6 -68 -100 -105 -179 -8 -16 -20 -23 -41 -23 -60 0 -55
-18 -91 334 l-7 69 37 -6 c21 -3 44 -11 51 -17z m1144 -21 c58 -20 81 -111 41
-162 l-20 -25 67 -65 68 -66 -28 -10 c-57 -22 -81 -14 -136 44 -32 34 -57 52
-66 48 -18 -6 -18 -3 0 -76 l13 -58 -24 -10 c-14 -5 -34 -9 -44 -9 -22 0 -21
-2 -73 218 l-34 142 36 10 c122 33 150 36 200 19z m-369 -69 c115 -59 122
-252 11 -325 -47 -31 -124 -42 -177 -25 -108 34 -163 161 -115 265 21 47 70
92 109 101 15 3 32 7 37 10 21 8 97 -7 135 -26z"/>
<path d="M2735 4589 c-31 -19 -45 -42 -34 -56 14 -16 15 -16 262 -14 109 1
137 4 137 15 0 18 -25 38 -53 42 -63 11 -87 13 -185 19 -76 4 -113 2 -127 -6z"/>
<path d="M2163 4580 c-13 -5 -46 -11 -74 -13 -27 -2 -55 -9 -62 -16 -6 -6 -8
-11 -5 -11 3 0 2 -16 -2 -35 -8 -35 2 -47 17 -21 13 22 70 32 178 31 101 -2
150 9 137 29 -6 10 -8 14 -11 34 -2 11 -152 13 -178 2z"/>
<path d="M2746 4431 c-32 -21 -54 -51 -37 -51 5 0 16 6 24 14 8 8 29 24 48 35
26 16 29 21 14 21 -11 0 -33 -9 -49 -19z"/>
<path d="M2966 4432 c102 -56 116 -63 112 -50 -6 16 -73 54 -113 62 l-30 6 31
-18z"/>
<path d="M2295 4398 c48 -25 33 -34 -32 -20 -62 14 -136 0 -185 -34 -21 -15
-38 -31 -38 -35 0 -19 39 -8 75 21 45 36 55 37 55 7 0 -32 18 -47 57 -47 27 0
37 6 51 30 20 35 31 37 60 10 29 -28 35 -25 27 13 -8 40 -48 77 -83 77 -25 -1
-25 -2 13 -22z"/>
<path d="M2789 4392 c-61 -19 -89 -37 -89 -58 0 -21 38 -17 50 6 6 11 23 26
38 34 26 14 27 13 37 -18 9 -28 14 -31 57 -34 39 -3 49 0 58 17 13 26 44 28
38 4 -4 -16 3 -18 53 -18 32 1 61 3 64 6 3 4 -25 21 -61 39 -82 40 -163 48
-245 22z"/>
<path d="M2075 4382 c-19 -14 -37 -42 -27 -42 5 0 17 11 26 25 17 26 17 29 1
17z"/>
<path d="M3567 4328 c-16 -9 -16 -11 7 -29 31 -24 46 -24 46 1 0 25 -30 41
-53 28z"/>
<path d="M1850 4260 c0 -5 5 -10 11 -10 5 0 7 5 4 10 -3 6 -8 10 -11 10 -2 0
-4 -4 -4 -10z"/>
<path d="M3444 4149 c-3 -6 0 -22 7 -36 11 -20 11 -26 -1 -34 -14 -9 19 -5 58
7 18 5 15 27 -8 52 -23 24 -45 28 -56 11z"/>
<path d="M3517 4024 c-16 -21 -16 -24 -2 -24 16 0 30 22 23 39 -1 5 -11 -2
-21 -15z"/>
<path d="M2740 3991 c0 -28 -10 -31 -56 -19 -36 10 -47 8 -87 -11 -51 -25 -60
-41 -24 -42 22 0 22 0 -2 -10 -17 -6 -27 -6 -31 1 -7 12 -38 3 -59 -17 -17
-18 -12 -22 33 -30 44 -7 106 22 106 49 0 10 7 18 17 18 13 0 14 -3 5 -12 -38
-38 33 -31 86 9 32 24 44 65 22 78 -5 3 -10 -3 -10 -14z"/>
<path d="M3436 3984 c-4 -9 -4 -19 -2 -21 8 -8 26 8 26 23 0 19 -16 18 -24 -2z"/>
<path d="M2350 3945 c-10 -12 -10 -18 0 -30 14 -17 40 -20 40 -5 0 6 15 10 33
10 l32 1 -24 19 c-28 24 -64 26 -81 5z"/>
<path d="M2819 3746 c-2 -3 -41 -6 -87 -8 -52 -2 -82 -7 -82 -14 0 -10 -134
-38 -165 -35 -5 1 -48 3 -94 5 -46 3 -101 8 -121 11 -38 6 -54 -2 -42 -22 6
-9 230 -26 312 -24 149 4 241 10 270 17 19 4 48 8 65 9 59 0 34 64 -26 65 -14
0 -28 -2 -30 -4z"/>
<path d="M3260 3596 c0 -2 7 -9 15 -16 9 -7 15 -8 15 -2 0 5 -7 12 -15 16 -8
3 -15 4 -15 2z"/>
<path d="M2608 3553 c7 -3 16 -2 19 1 4 3 -2 6 -13 5 -11 0 -14 -3 -6 -6z"/>
<path d="M2202 2907 c6 -65 39 -157 66 -179 13 -12 14 -8 8 27 -4 22 -18 72
-32 112 -13 39 -24 78 -24 87 0 9 -5 16 -11 16 -8 0 -10 -20 -7 -63z"/>
<path d="M670 2651 c0 -17 6 -21 31 -21 24 0 30 4 27 18 -2 10 -14 18 -31 20
-22 3 -27 -1 -27 -17z"/>
<path d="M5300 2145 c0 -8 7 -15 15 -15 8 0 15 7 15 15 0 8 -7 15 -15 15 -8 0
-15 -7 -15 -15z"/>
<path d="M734 2349 c-102 -29 -114 -155 -19 -194 41 -18 105 -3 140 33 43 43
30 129 -24 157 -33 17 -51 18 -97 4z"/>
<path d="M943 1927 c-49 -24 -52 -33 -22 -71 21 -27 48 -33 78 -16 28 14 32
37 16 76 -16 39 -17 40 -72 11z"/>
<path d="M1934 916 c-34 -15 -74 -84 -74 -128 0 -64 89 -115 147 -84 34 17 73
86 73 127 0 34 -27 69 -66 85 -40 17 -41 17 -80 0z"/>
<path d="M3357 773 c-15 -4 -17 -11 -12 -36 12 -59 16 -67 36 -67 39 0 59 19
59 55 0 46 -28 62 -83 48z"/>
<path d="M2932 695 c-35 -29 -46 -73 -32 -126 15 -55 44 -79 96 -79 85 0 128
83 91 173 -26 60 -102 76 -155 32z"/>
</g>
</svg>
